#Comment line ignore any data following # character 
#Hierarchical Translation and Rotation (.htr) file 
[Header]	
#Header keywords are followed by a single value 
FileType HTR		#Single word string
DataType HTRS		#Translation followed by rotation and scale data
FileVersion 1		#integer
NumSegments 84		#integer
NumFrames 2		#integer
DataFrameRate 30		#integer, data frame rate in this file
EulerRotationOrder ZYX
CalibrationUnits mm
RotationUnits Degrees
GlobalAxisofGravity Y
BoneLengthAxis Y
ScaleFactor 1.00
[SegmentNames&Hierarchy]
#CHILD	PARENT
MASTER GLOBAL
root MASTER
chest root
L_mid_tent01 root
R_mid_tent01 root
spine01 root
Bip01_Neck chest
L_humerus chest
R_humerus chest
weapon_bone chest
Bip01_Head Bip01_Neck
eye_left_bone Bip01_Head
eye_right_bone Bip01_Head
L_forearm L_humerus
L_front_hand L_forearm
L_weapon_bone L_forearm
L_front_hand01_01 L_front_hand
L_front_hand02_01 L_front_hand
L_front_hand03_01 L_front_hand
L_front_hand01_02 L_front_hand01_01
L_front_hand02_02 L_front_hand02_01
L_front_hand03_02 L_front_hand03_01
R_forearm R_humerus
R_front_hand R_forearm
R_weapon_bone R_forearm
R_front_hand01_01 R_front_hand
R_front_hand02_01 R_front_hand
R_front_hand03_01 R_front_hand
R_front_hand01_02 R_front_hand01_01
R_front_hand02_02 R_front_hand02_01
R_front_hand03_02 R_front_hand03_01
null_rope01_connect L_mid_tent01
Rope1_Seg01 null_rope01_connect
Rope1_Seg02 Rope1_Seg01
Rope1_Seg03 Rope1_Seg02
Rope1_Seg04 Rope1_Seg03
Rope1_Seg05 Rope1_Seg04
Rope1_Seg06 Rope1_Seg05
Rope1_Seg07 Rope1_Seg06
Rope1_Seg09 Rope1_Seg07
L_mid_hand01 Rope1_Seg09
L_mid_hand02 Rope1_Seg09
L_mid_hand03 Rope1_Seg09
null_rope02_connect R_mid_tent01
Rope2_Seg01 null_rope02_connect
Rope2_Seg02 Rope2_Seg01
Rope2_Seg03 Rope2_Seg02
Rope2_Seg04 Rope2_Seg03
Rope2_Seg05 Rope2_Seg04
Rope2_Seg06 Rope2_Seg05
Rope2_Seg07 Rope2_Seg06
Rope2_Seg09 Rope2_Seg07
R_mid_hand01 Rope2_Seg09
R_mid_hand02 Rope2_Seg09
R_mid_hand03 Rope2_Seg09
spine02 spine01
spine03 spine02
pelvis spine03
null_rope03_connect pelvis
null_rope04_connect pelvis
Rope3_Seg01 null_rope03_connect
Rope3_Seg02 Rope3_Seg01
Rope3_Seg03 Rope3_Seg02
Rope3_Seg04 Rope3_Seg03
Rope3_Seg05 Rope3_Seg04
Rope3_Seg06 Rope3_Seg05
Rope3_Seg07 Rope3_Seg06
Rope3_Seg08 Rope3_Seg07
Rope3_Seg09 Rope3_Seg08
R_rear_hand01 Rope3_Seg09
R_rear_hand02 Rope3_Seg09
R_rear_hand03 Rope3_Seg09
Rope4_Seg01 null_rope04_connect
Rope4_Seg02 Rope4_Seg01
Rope4_Seg03 Rope4_Seg02
Rope4_Seg04 Rope4_Seg03
Rope4_Seg05 Rope4_Seg04
Rope4_Seg06 Rope4_Seg05
Rope4_Seg07 Rope4_Seg06
Rope4_Seg08 Rope4_Seg07
Rope4_Seg09 Rope4_Seg08
L_rear_hand01 Rope4_Seg09
L_rear_hand02 Rope4_Seg09
L_rear_hand03 Rope4_Seg09
[BasePosition]
#SegmentName Tx, Ty, Tz, Rx, Ry, Rz, BoneLength
MASTER 0.000000 0.000000 0.000000 -90.000000 0.000000 0.000000 10.000000 
root 0.000000 0.000000 0.000000 0.000000 0.000000 0.000000 10.000000 
chest 0.000000 0.000000 0.000000 0.000000 0.000000 0.000000 10.000000 
L_mid_tent01 0.000000 0.000000 0.000000 0.000000 0.000000 0.000000 10.000000 
R_mid_tent01 0.000000 0.000000 0.000000 0.000000 0.000000 0.000000 10.000000 
spine01 0.000000 0.000000 0.000000 0.000000 0.000000 0.000000 10.000000 
Bip01_Neck 0.000000 0.000000 0.000000 0.000000 0.000000 0.000000 10.000000 
L_humerus 0.000000 0.000000 0.000000 0.000000 0.000000 0.000000 10.000000 
R_humerus 0.000000 0.000000 0.000000 0.000000 0.000000 0.000000 10.000000 
weapon_bone 0.000000 0.000000 0.000000 0.000000 0.000000 0.000000 10.000000 
Bip01_Head 0.000000 0.000000 0.000000 0.000000 0.000000 0.000000 10.000000 
eye_left_bone 0.000000 0.000000 0.000000 0.000000 0.000000 0.000000 10.000000 
eye_right_bone 0.000000 0.000000 0.000000 0.000000 0.000000 0.000000 10.000000 
L_forearm 0.000000 0.000000 0.000000 0.000000 0.000000 0.000000 10.000000 
L_front_hand 0.000000 0.000000 0.000000 0.000000 0.000000 0.000000 10.000000 
L_weapon_bone 0.000000 0.000000 0.000000 0.000000 0.000000 0.000000 10.000000 
L_front_hand01_01 0.000000 0.000000 0.000000 0.000000 0.000000 0.000000 10.000000 
L_front_hand02_01 0.000000 0.000000 0.000000 0.000000 0.000000 0.000000 10.000000 
L_front_hand03_01 0.000000 0.000000 0.000000 0.000000 0.000000 0.000000 10.000000 
L_front_hand01_02 0.000000 0.000000 0.000000 0.000000 0.000000 0.000000 10.000000 
L_front_hand02_02 0.000000 0.000000 0.000000 0.000000 0.000000 0.000000 10.000000 
L_front_hand03_02 0.000000 0.000000 0.000000 0.000000 0.000000 0.000000 10.000000 
R_forearm 0.000000 0.000000 0.000000 0.000000 0.000000 0.000000 10.000000 
R_front_hand 0.000000 0.000000 0.000000 0.000000 0.000000 0.000000 10.000000 
R_weapon_bone 0.000000 0.000000 0.000000 0.000000 0.000000 0.000000 10.000000 
R_front_hand01_01 0.000000 0.000000 0.000000 0.000000 0.000000 0.000000 10.000000 
R_front_hand02_01 0.000000 0.000000 0.000000 0.000000 0.000000 0.000000 10.000000 
R_front_hand03_01 0.000000 0.000000 0.000000 0.000000 0.000000 0.000000 10.000000 
R_front_hand01_02 0.000000 0.000000 0.000000 0.000000 0.000000 0.000000 10.000000 
R_front_hand02_02 0.000000 0.000000 0.000000 0.000000 0.000000 0.000000 10.000000 
R_front_hand03_02 0.000000 0.000000 0.000000 0.000000 0.000000 0.000000 10.000000 
null_rope01_connect 0.000000 0.000000 0.000000 0.000000 0.000000 0.000000 10.000000 
Rope1_Seg01 0.000000 0.000000 0.000000 0.000000 0.000000 0.000000 10.000000 
Rope1_Seg02 0.000000 0.000000 0.000000 0.000000 0.000000 0.000000 10.000000 
Rope1_Seg03 0.000000 0.000000 0.000000 0.000000 0.000000 0.000000 10.000000 
Rope1_Seg04 0.000000 0.000000 0.000000 0.000000 0.000000 0.000000 10.000000 
Rope1_Seg05 0.000000 0.000000 0.000000 0.000000 0.000000 0.000000 10.000000 
Rope1_Seg06 0.000000 0.000000 0.000000 0.000000 0.000000 0.000000 10.000000 
Rope1_Seg07 0.000000 0.000000 0.000000 0.000000 0.000000 0.000000 10.000000 
Rope1_Seg09 0.000000 0.000000 0.000000 0.000000 0.000000 0.000000 10.000000 
L_mid_hand01 0.000000 0.000000 0.000000 0.000000 0.000000 0.000000 10.000000 
L_mid_hand02 0.000000 0.000000 0.000000 0.000000 0.000000 0.000000 10.000000 
L_mid_hand03 0.000000 0.000000 0.000000 0.000000 0.000000 0.000000 10.000000 
null_rope02_connect 0.000000 0.000000 0.000000 0.000000 0.000000 0.000000 10.000000 
Rope2_Seg01 0.000000 0.000000 0.000000 0.000000 0.000000 0.000000 10.000000 
Rope2_Seg02 0.000000 0.000000 0.000000 0.000000 0.000000 0.000000 10.000000 
Rope2_Seg03 0.000000 0.000000 0.000000 0.000000 0.000000 0.000000 10.000000 
Rope2_Seg04 0.000000 0.000000 0.000000 0.000000 0.000000 0.000000 10.000000 
Rope2_Seg05 0.000000 0.000000 0.000000 0.000000 0.000000 0.000000 10.000000 
Rope2_Seg06 0.000000 0.000000 0.000000 0.000000 0.000000 0.000000 10.000000 
Rope2_Seg07 0.000000 0.000000 0.000000 0.000000 0.000000 0.000000 10.000000 
Rope2_Seg09 0.000000 0.000000 0.000000 0.000000 0.000000 0.000000 10.000000 
R_mid_hand01 0.000000 0.000000 0.000000 0.000000 0.000000 0.000000 10.000000 
R_mid_hand02 0.000000 0.000000 0.000000 0.000000 0.000000 0.000000 10.000000 
R_mid_hand03 0.000000 0.000000 0.000000 0.000000 0.000000 0.000000 10.000000 
spine02 0.000000 0.000000 0.000000 0.000000 0.000000 0.000000 10.000000 
spine03 0.000000 0.000000 0.000000 0.000000 0.000000 0.000000 10.000000 
pelvis 0.000000 0.000000 0.000000 0.000000 0.000000 0.000000 10.000000 
null_rope03_connect 0.000000 0.000000 0.000000 0.000000 0.000000 0.000000 10.000000 
null_rope04_connect 0.000000 0.000000 0.000000 0.000000 0.000000 0.000000 10.000000 
Rope3_Seg01 0.000000 0.000000 0.000000 0.000000 0.000000 0.000000 10.000000 
Rope3_Seg02 0.000000 0.000000 0.000000 0.000000 0.000000 0.000000 10.000000 
Rope3_Seg03 0.000000 0.000000 0.000000 0.000000 0.000000 0.000000 10.000000 
Rope3_Seg04 0.000000 0.000000 0.000000 0.000000 0.000000 0.000000 10.000000 
Rope3_Seg05 0.000000 0.000000 0.000000 0.000000 0.000000 0.000000 10.000000 
Rope3_Seg06 0.000000 0.000000 0.000000 0.000000 0.000000 0.000000 10.000000 
Rope3_Seg07 0.000000 0.000000 0.000000 0.000000 0.000000 0.000000 10.000000 
Rope3_Seg08 0.000000 0.000000 0.000000 0.000000 0.000000 0.000000 10.000000 
Rope3_Seg09 0.000000 0.000000 0.000000 0.000000 0.000000 0.000000 10.000000 
R_rear_hand01 0.000000 0.000000 0.000000 0.000000 0.000000 0.000000 10.000000 
R_rear_hand02 0.000000 0.000000 0.000000 0.000000 0.000000 0.000000 10.000000 
R_rear_hand03 0.000000 0.000000 0.000000 0.000000 0.000000 0.000000 10.000000 
Rope4_Seg01 0.000000 0.000000 0.000000 0.000000 0.000000 0.000000 10.000000 
Rope4_Seg02 0.000000 0.000000 0.000000 0.000000 0.000000 0.000000 10.000000 
Rope4_Seg03 0.000000 0.000000 0.000000 0.000000 0.000000 0.000000 10.000000 
Rope4_Seg04 0.000000 0.000000 0.000000 0.000000 0.000000 0.000000 10.000000 
Rope4_Seg05 0.000000 0.000000 0.000000 0.000000 0.000000 0.000000 10.000000 
Rope4_Seg06 0.000000 0.000000 0.000000 0.000000 0.000000 0.000000 10.000000 
Rope4_Seg07 0.000000 0.000000 0.000000 0.000000 0.000000 0.000000 10.000000 
Rope4_Seg08 0.000000 0.000000 0.000000 0.000000 0.000000 0.000000 10.000000 
Rope4_Seg09 0.000000 0.000000 0.000000 0.000000 0.000000 0.000000 10.000000 
L_rear_hand01 0.000000 0.000000 0.000000 0.000000 0.000000 0.000000 10.000000 
L_rear_hand02 0.000000 0.000000 0.000000 0.000000 0.000000 0.000000 10.000000 
L_rear_hand03 0.000000 0.000000 0.000000 0.000000 0.000000 0.000000 10.000000 
#Beginning of Data. Separated by tabs
#Fr	Tx	Ty	Tz	Rx	Ry	Rz	SF
[MASTER]
24 0.000000 0.000000 0.000000 0.001660 0.001660 0.001660 0.000000
25 0.000000 0.000000 0.000000 0.001660 0.001660 0.001660 0.000000
[root]
24 -141.126587 358.729309 1647.115479 -104.635864 -30.184498 -39.466888 1691.624268
25 -126.622421 311.451202 1654.496460 -104.347267 -31.023214 -44.044865 1688.310791
[chest]
24 -84.512650 -34.090519 0.000000 -4.883931 1.981831 -178.071060 91.129311
25 -84.512650 -34.090519 0.000000 -5.264975 1.959771 -179.230209 91.129311
[L_mid_tent01]
24 27.299099 22.179142 -249.918915 -22.057297 41.794552 21.968838 252.381882
25 27.299099 22.179136 -249.918930 -22.043734 37.984936 21.060122 252.381897
[R_mid_tent01]
24 23.228794 24.509907 226.238495 176.355835 -12.856405 58.960770 228.744751
25 23.228794 24.509907 226.238495 178.872086 -13.230503 53.851017 228.744751
[spine01]
24 -0.361383 -0.195265 0.000000 -0.027431 -0.011395 22.253452 0.410763
25 -0.361383 -0.195265 0.000000 -0.020970 -0.008473 22.205563 0.410763
[Bip01_Neck]
24 165.484543 71.581718 0.000119 175.896118 1.177290 24.871183 180.302734
25 165.484543 71.581718 0.000119 175.896118 1.177290 24.871183 180.302734
[L_humerus]
24 -13.983130 -135.272980 -120.471481 -5.256117 67.623215 84.793968 181.680161
25 -13.983130 -135.272980 -120.471481 -5.307377 67.919426 84.742058 181.680161
[R_humerus]
24 -13.983309 -135.273102 125.287651 -151.401657 -64.595802 -126.359932 184.909012
25 -13.983309 -135.273102 125.287651 -144.540482 -65.539589 -132.135086 184.909012
[weapon_bone]
24 235.964890 -300.705902 0.000000 0.000000 -89.951546 -128.212341 382.234833
25 235.964890 -300.705902 0.000000 0.000000 -89.951546 -128.212341 382.234833
[Bip01_Head]
24 233.769577 208.614624 -10.779465 -45.957485 13.110872 -55.483654 313.503540
25 234.934067 204.407257 -10.560880 -43.047726 12.707047 -55.871738 311.589264
[eye_left_bone]
24 0.669573 120.195313 -57.678978 0.000000 -90.000000 -99.840431 133.320023
25 0.415533 120.248123 -57.750134 0.000000 -90.000000 -99.840431 133.397385
[eye_right_bone]
24 0.674532 120.193054 71.421486 0.000000 -89.965736 80.156380 139.813644
25 0.420416 120.245972 71.350288 0.000000 -89.965736 80.156380 139.821793
[L_forearm]
24 322.776093 0.000000 -0.000119 0.000406 -0.002312 -109.934174 322.776093
25 322.776093 0.000000 -0.000119 0.000404 -0.002312 -109.819344 322.776093
[L_front_hand]
24 241.149185 -0.042021 -3.300071 -178.667953 -1.835447 -27.422350 241.171753
25 241.149185 -0.042021 -3.300071 -178.667953 -1.835447 -27.422350 241.171753
[L_weapon_bone]
24 156.183838 0.000000 0.000000 0.000014 0.000007 0.000001 156.183838
25 156.183838 0.000000 0.000000 0.000014 0.000007 0.000001 156.183838
[L_front_hand01_01]
24 86.095154 20.947098 -0.655860 -0.366594 -0.477154 75.385574 88.609184
25 86.095154 20.947098 -0.655860 -0.366594 -0.477154 75.385574 88.609184
[L_front_hand02_01]
24 86.935165 -11.437475 24.513514 154.403519 -59.888931 -61.371990 91.046425
25 86.935165 -11.437475 24.513514 154.403519 -59.888931 -61.371990 91.046425
[L_front_hand03_01]
24 86.637497 -14.123976 -20.424902 -153.913849 58.118122 -62.702866 90.126129
25 86.637497 -14.123976 -20.424902 -153.913849 58.118122 -62.702866 90.126129
[L_front_hand01_02]
24 71.020905 -0.000179 0.000030 0.000334 -0.002323 -106.379684 71.020905
25 71.020905 -0.000179 0.000030 0.000334 -0.002323 -106.379684 71.020905
[L_front_hand02_02]
24 71.020927 -0.000119 0.000060 0.000334 -0.002323 -106.379684 71.020927
25 71.020927 -0.000119 0.000060 0.000334 -0.002323 -106.379684 71.020927
[L_front_hand03_02]
24 71.020905 -0.000060 0.000060 0.000334 -0.002323 -106.379684 71.020905
25 71.020905 -0.000060 0.000060 0.000334 -0.002323 -106.379684 71.020905
[R_forearm]
24 322.776428 -0.000060 0.000030 0.213295 0.003866 -91.459396 322.776428
25 322.776428 -0.000060 0.000030 0.211210 0.033584 -99.952827 322.776428
[R_front_hand]
24 238.847015 -0.006795 2.210259 50.873737 12.697774 -29.770790 238.857239
25 238.847015 -0.006795 2.210259 42.534016 12.181959 -33.528919 238.857239
[R_weapon_bone]
24 155.664093 0.002503 -0.000030 0.003487 0.001180 -90.988930 155.664078
25 155.664093 0.002503 -0.000030 0.003487 0.001180 -90.988930 155.664078
[R_front_hand01_01]
24 87.624611 14.231146 22.918642 -154.633514 -59.950626 61.746063 91.683487
25 87.624611 14.231146 22.918642 -154.633499 -59.950619 61.746044 91.683487
[R_front_hand02_01]
24 89.356956 14.367283 -19.491137 154.602676 58.302864 63.744400 92.579636
25 89.356956 14.367283 -19.491137 154.602661 58.302849 63.744389 92.579636
[R_front_hand03_01]
24 87.286232 -22.307278 -0.143439 0.162155 -0.423168 -75.767921 90.091743
25 87.286232 -22.307278 -0.143439 0.162155 -0.423168 -75.767921 90.091743
[R_front_hand01_02]
24 71.020905 0.000060 0.000119 0.002323 -0.000334 106.381714 71.020905
25 71.020905 0.000060 0.000119 0.002323 -0.000334 106.381714 71.020905
[R_front_hand02_02]
24 71.020844 -0.000030 -0.000119 0.002323 -0.000334 106.381714 71.020836
25 71.020844 -0.000030 -0.000119 0.002323 -0.000334 106.381714 71.020836
[R_front_hand03_02]
24 71.020905 0.000000 0.000030 0.002323 -0.000334 106.381714 71.020905
25 71.020905 0.000000 0.000030 0.002323 -0.000334 106.381714 71.020905
[null_rope01_connect]
24 328.732483 0.000000 -0.000238 -170.572418 -64.921188 -83.757675 328.732483
25 328.732483 0.000000 -0.000238 -168.374481 -65.170212 -85.232590 328.732483
[Rope1_Seg01]
24 0.000050 -0.000045 0.000117 16.966084 -13.385664 -96.611176 0.000135
25 0.000053 -0.000044 0.000122 20.023531 -13.446423 -99.315109 0.000140
[Rope1_Seg02]
24 139.999863 -0.000179 0.000000 8.246667 5.153411 -14.389141 139.999863
25 139.999863 -0.000179 0.000000 9.687170 5.166616 -15.124404 139.999863
[Rope1_Seg03]
24 139.999924 0.000060 -0.000060 69.731682 5.280012 -29.717958 139.999924
25 139.999924 0.000060 -0.000060 64.619957 3.603992 -26.932175 139.999924
[Rope1_Seg04]
24 139.999924 -0.000060 -0.000119 53.818268 -28.113173 -15.287470 139.999924
25 139.999924 -0.000060 -0.000119 52.913731 -24.093645 -14.583013 139.999924
[Rope1_Seg05]
24 139.999832 0.000119 -0.000060 7.438891 -16.279173 4.430308 139.999832
25 139.999832 0.000119 -0.000060 10.047576 -14.869203 1.906846 139.999832
[Rope1_Seg06]
24 139.999954 0.000119 -0.000060 5.206411 -18.548773 3.912663 139.999954
25 139.999954 0.000119 -0.000060 7.146207 -12.655484 0.005899 139.999954
[Rope1_Seg07]
24 139.999985 0.000060 0.000000 1.198106 -15.334340 5.322089 139.999985
25 139.999985 0.000060 0.000000 2.860572 -9.349035 2.309344 139.999985
[Rope1_Seg09]
24 121.602913 0.000119 -0.000089 -89.793175 -1.359789 0.847147 121.602913
25 121.602913 0.000119 -0.000089 -89.793175 -1.359789 0.847147 121.602913
[L_mid_hand01]
24 103.859421 1.038730 8.195221 114.520287 -53.310486 -20.623234 104.187431
25 103.859421 1.038730 8.195221 114.520287 -53.310486 -20.623234 104.187431
[L_mid_hand02]
24 105.572853 -4.139662 -10.864139 -155.067673 38.166626 -52.448818 106.211075
25 105.572853 -4.139662 -10.864139 -155.067673 38.166626 -52.448818 106.211075
[L_mid_hand03]
24 104.641464 17.579376 -3.913581 -10.970130 15.317461 57.626949 106.179977
25 104.641464 17.579376 -3.913581 -10.970130 15.317461 57.626949 106.179977
[null_rope02_connect]
24 328.732849 0.000179 -0.000119 -78.575394 33.179367 36.407410 328.732849
25 328.732849 0.000179 -0.000119 -79.678024 38.290394 30.601315 328.732849
[Rope2_Seg01]
24 0.000095 0.000153 0.000058 -49.639641 15.214199 -27.353516 0.000189
25 0.000095 0.000153 0.000061 175.108078 29.266333 -48.601318 0.000190
[Rope2_Seg02]
24 139.999741 -0.000060 -0.000119 -17.798540 -8.599822 13.778712 139.999756
25 139.999741 -0.000060 -0.000119 43.739925 -0.727082 -9.006557 139.999756
[Rope2_Seg03]
24 140.000107 0.000030 0.000000 -6.974575 -15.484040 13.008806 140.000107
25 140.000107 0.000030 0.000000 36.680679 -10.916744 -9.886878 140.000107
[Rope2_Seg04]
24 139.999802 0.000000 -0.000060 -1.174283 -15.828382 7.585402 139.999802
25 139.999802 0.000000 -0.000060 16.820753 -22.583630 -4.231299 139.999802
[Rope2_Seg05]
24 139.999985 -0.000060 0.000119 -2.309204 -7.988881 9.490644 139.999985
25 139.999985 -0.000060 0.000119 4.476726 -22.068710 1.816215 139.999985
[Rope2_Seg06]
24 139.999893 -0.000030 -0.000119 -2.247696 -6.256196 18.066820 139.999893
25 139.999893 -0.000030 -0.000119 -1.837072 -14.025483 8.997396 139.999893
[Rope2_Seg07]
24 139.999893 0.000060 -0.000060 0.714628 -6.945378 16.350376 139.999893
25 139.999893 0.000060 -0.000060 -1.558159 -11.949639 13.407884 139.999893
[Rope2_Seg09]
24 121.338966 0.000089 -0.000060 136.879395 0.546403 -1.506368 121.338966
25 121.338966 0.000089 -0.000060 136.879395 0.546403 -1.506368 121.338966
[R_mid_hand01]
24 104.680779 11.144459 -10.335981 -33.912163 35.430527 43.502560 105.778534
25 104.680779 11.144459 -10.335981 -35.505901 33.839397 40.705864 105.778534
[R_mid_hand02]
24 104.070427 2.443552 8.231699 68.197052 -48.096588 17.113396 104.424065
25 104.070427 2.443552 8.231699 69.277916 -45.487473 15.633079 104.424065
[R_mid_hand03]
24 106.028137 -11.221827 -5.996406 -171.245392 13.223534 -53.335087 106.788818
25 106.028137 -11.221827 -5.996406 -170.607315 12.782290 -50.502613 106.788818
[spine02]
24 129.756927 0.001550 0.000119 0.084034 -11.158647 -6.848269 129.756927
25 129.756927 0.001550 0.000119 0.165512 -10.191935 -7.685274 129.756927
[spine03]
24 78.614044 0.081518 -4.899009 1.936076 3.813135 17.094353 78.766579
25 78.614044 0.081512 -4.899009 1.926594 3.816188 16.956490 78.766579
[pelvis]
24 169.435242 0.051022 0.000000 -0.061202 -0.179976 14.556472 169.435257
25 169.435242 0.051022 0.000000 -0.061037 -0.180032 14.451791 169.435257
[null_rope03_connect]
24 -1.257226 -2.466202 137.391083 107.479362 -38.309448 -28.766787 137.418976
25 -1.257226 -2.466202 137.391083 108.339813 -43.725811 -28.403332 137.418976
[null_rope04_connect]
24 -1.259640 -2.480268 -137.844437 107.479362 -38.309448 -28.766787 137.872513
25 -1.259640 -2.480268 -137.844437 108.339813 -43.725811 -28.403332 137.872513
[Rope3_Seg01]
24 0.000000 0.000000 0.000000 140.742462 -57.178066 0.154707 0.000000
25 0.000000 0.000000 0.000000 -170.991364 -29.419125 -12.962055 0.000000
[Rope3_Seg02]
24 139.999924 -0.000119 0.000060 -15.626563 1.277405 -15.798035 139.999924
25 139.999924 -0.000119 0.000060 26.193548 -13.435508 -15.232072 139.999924
[Rope3_Seg03]
24 139.999924 -0.000119 0.000119 -50.609791 7.909560 -23.877832 139.999924
25 139.999924 -0.000119 0.000119 120.932816 -22.695265 -5.433957 139.999924
[Rope3_Seg04]
24 139.999924 0.000119 0.000000 -43.442616 24.466463 -12.297459 139.999924
25 139.999924 0.000119 0.000000 10.656137 2.138212 14.546371 139.999924
[Rope3_Seg05]
24 139.999924 -0.000238 0.000060 -2.182262 7.485087 6.371132 139.999924
25 139.999924 -0.000238 0.000060 22.602942 -13.680728 1.933351 139.999924
[Rope3_Seg06]
24 139.999893 -0.000119 -0.000060 4.154719 -1.255805 6.775226 139.999893
25 139.999893 -0.000119 -0.000060 20.255781 -10.302886 4.151127 139.999893
[Rope3_Seg07]
24 139.999771 0.000060 -0.000119 1.165402 2.429979 5.133420 139.999771
25 139.999771 0.000060 -0.000119 7.629489 -2.561886 3.783054 139.999771
[Rope3_Seg08]
24 139.999985 -0.000060 0.000000 0.768266 1.962835 3.438320 139.999985
25 139.999985 -0.000060 0.000000 4.354574 -1.225710 2.464684 139.999985
[Rope3_Seg09]
24 90.185997 -0.000179 -0.000060 159.792526 -1.358243 -0.846482 90.185997
25 90.185997 -0.000179 -0.000060 159.792526 -1.358243 -0.846482 90.185997
[R_rear_hand01]
24 103.366196 -6.073594 -10.757982 -156.049377 6.070623 -2.796332 104.101845
25 103.366196 -6.073594 -10.757982 -177.714203 24.565960 -73.910950 104.101845
[R_rear_hand02]
24 100.509819 12.039542 -7.992327 -38.708424 1.958366 5.461579 101.543350
25 100.509819 12.039542 -7.992327 -12.874834 36.868492 72.167213 101.543350
[R_rear_hand03]
24 101.539970 5.215704 5.435467 84.307640 -2.361534 4.099089 101.819031
25 101.539970 5.215704 5.435467 71.484581 -71.816628 21.513828 101.819031
[Rope4_Seg01]
24 -0.000012 -0.000018 -0.000153 -49.822990 -4.478384 -3.490565 0.000154
25 -0.000011 -0.000015 -0.000153 -38.207661 -2.799889 -8.499351 0.000154
[Rope4_Seg02]
24 139.999985 0.000060 0.000119 -24.278212 -1.889143 9.550097 139.999985
25 139.999985 0.000060 0.000119 -26.776926 1.463071 9.013765 139.999985
[Rope4_Seg03]
24 139.999924 0.000000 -0.000238 -38.637466 -11.500438 16.662298 139.999924
25 139.999924 0.000000 -0.000238 -57.580273 -6.075455 19.192959 139.999924
[Rope4_Seg04]
24 139.999985 0.000000 0.000119 -23.699736 -39.315891 12.085546 139.999985
25 139.999985 0.000000 0.000119 -26.446741 -43.043922 10.513956 139.999985
[Rope4_Seg05]
24 139.999802 -0.000060 -0.000119 -2.402770 -22.001787 0.549494 139.999802
25 139.999802 -0.000060 -0.000119 -4.423521 -20.904303 3.581494 139.999802
[Rope4_Seg06]
24 139.999924 0.000000 0.000060 -0.835096 -12.040493 9.050792 139.999924
25 139.999924 0.000000 0.000060 -5.152625 -18.580359 19.782669 139.999924
[Rope4_Seg07]
24 139.999802 0.000000 0.000000 1.465817 -19.985903 11.359723 139.999802
25 139.999802 0.000000 0.000000 0.253166 -22.493839 13.329261 139.999802
[Rope4_Seg08]
24 139.999924 0.000000 0.000119 2.796473 -14.558852 8.005561 139.999924
25 139.999924 0.000000 0.000119 0.336970 -6.879669 4.317719 139.999924
[Rope4_Seg09]
24 90.185791 0.000060 0.000060 -135.617828 2.228885 0.850567 90.185791
25 90.185791 0.000060 0.000060 -135.617828 2.228885 0.850567 90.185791
[L_rear_hand01]
24 101.696655 -8.392275 -7.654577 -19.915020 -33.950905 119.950104 102.329041
25 101.696655 -8.392275 -7.654577 -19.915020 -33.950905 119.950104 102.329041
[L_rear_hand02]
24 102.726799 -1.568258 5.773216 77.862221 61.878510 165.399200 102.900848
25 102.726799 -1.568258 5.773216 77.862221 61.878510 165.399200 102.900848
[L_rear_hand03]
24 104.552910 9.721220 -10.420293 -173.099182 -23.740307 -117.327896 105.519653
25 104.552910 9.721220 -10.420293 -173.099182 -23.740307 -117.327896 105.519653
